<?xml version="1.0" encoding="UTF-8"?>
<svg xmlns="http://www.w3.org/2000/svg" xmlns:xlink="http://www.w3.org/1999/xlink" width="32px" height="32px" viewBox="0 0 32 32" version="1.1">
<g id="surface1">
<path style=" stroke:none;fill-rule:nonzero;fill:rgb(18.039216%,73.72549%,73.72549%);fill-opacity:1;" d="M 28.171875 6.457031 C 27.40625 6.621094 26.613281 6.707031 25.800781 6.707031 C 21.769531 6.707031 18.203125 4.589844 16 1.332031 C 13.796875 4.589844 10.230469 6.707031 6.195312 6.707031 C 5.386719 6.707031 4.59375 6.621094 3.828125 6.457031 C 3.480469 10.085938 3.945312 14.03125 5.339844 17.886719 C 7.515625 23.902344 11.503906 28.429688 16 30.667969 C 20.496094 28.429688 24.484375 23.902344 26.660156 17.886719 C 28.054688 14.03125 28.519531 10.085938 28.171875 6.457031 Z M 24.964844 17.273438 C 23.148438 22.296875 19.90625 26.382812 16 28.621094 C 12.089844 26.382812 8.851562 22.296875 7.035156 17.273438 C 5.996094 14.410156 5.484375 11.410156 5.523438 8.492188 C 5.746094 8.503906 5.972656 8.511719 6.195312 8.511719 C 9.886719 8.511719 13.414062 6.933594 16 4.203125 C 18.585938 6.933594 22.113281 8.511719 25.800781 8.511719 C 26.027344 8.511719 26.253906 8.503906 26.476562 8.492188 C 26.515625 11.410156 26 14.410156 24.964844 17.273438 Z M 24.964844 17.273438 "/>
<path style=" stroke:none;fill-rule:nonzero;fill:rgb(27.058824%,27.058824%,27.058824%);fill-opacity:1;" d="M 16.128906 14.144531 C 18.910156 14.144531 21.488281 14.695312 23.609375 15.636719 C 24.160156 13.878906 24.503906 12.058594 24.625 10.265625 C 21.492188 10.011719 18.464844 8.746094 16 6.675781 C 13.535156 8.746094 10.507812 10.011719 7.375 10.265625 C 7.5 12.09375 7.855469 13.949219 8.421875 15.738281 C 10.585938 14.738281 13.246094 14.144531 16.128906 14.144531 Z M 16.128906 14.144531 "/>
<path style=" stroke:none;fill-rule:nonzero;fill:rgb(18.039216%,73.72549%,73.72549%);fill-opacity:1;" d="M 16.128906 15.875 C 13.5 15.875 11.121094 16.792969 9.382812 18.273438 C 10.945312 21.75 13.277344 24.65625 16 26.5 C 18.765625 24.628906 21.125 21.664062 22.683594 18.117188 C 20.96875 16.726562 18.664062 15.875 16.128906 15.875 Z M 16.128906 15.875 "/>
<path style=" stroke:none;fill-rule:nonzero;fill:rgb(27.058824%,27.058824%,27.058824%);fill-opacity:1;" d="M 7.035156 17.273438 C 5.996094 14.410156 5.484375 11.410156 5.523438 8.492188 C 5.746094 8.503906 5.972656 8.511719 6.195312 8.511719 C 9.886719 8.511719 13.414062 6.933594 16 4.203125 L 16 1.332031 C 13.796875 4.589844 10.230469 6.707031 6.195312 6.707031 C 5.386719 6.707031 4.59375 6.621094 3.828125 6.457031 C 3.480469 10.085938 3.945312 14.03125 5.339844 17.886719 C 7.515625 23.902344 11.503906 28.429688 16 30.667969 L 16 28.621094 C 12.089844 26.382812 8.851562 22.296875 7.035156 17.273438 Z M 7.035156 17.273438 "/>
<path style=" stroke:none;fill-rule:nonzero;fill:rgb(17.647059%,66.666667%,65.490196%);fill-opacity:1;" d="M 9.382812 18.273438 C 10.945312 21.75 13.277344 24.65625 16 26.5 L 16 15.878906 C 13.421875 15.910156 11.089844 16.816406 9.382812 18.273438 Z M 9.382812 18.273438 "/>
<path style=" stroke:none;fill-rule:nonzero;fill:rgb(22.352941%,22.352941%,22.352941%);fill-opacity:1;" d="M 8.421875 15.738281 C 10.550781 14.75 13.167969 14.164062 16 14.144531 L 16 6.675781 C 13.535156 8.746094 10.507812 10.011719 7.375 10.265625 C 7.5 12.09375 7.855469 13.949219 8.421875 15.738281 Z M 8.421875 15.738281 "/>
</g>
</svg>
